HIERARCHY
ROOT root
{
	OFFSET	0	13.1	24.9
	CHANNELS 6  Xposition Yposition Zposition Xrotation Yrotation Zrotation
	JOINT spine_1
	{
		OFFSET	0	9.99999	0
		CHANNELS 3  Xrotation Yrotation Zrotation
		JOINT spine_2
		{
			OFFSET	0	112	-10
			CHANNELS 3  Xrotation Yrotation Zrotation
			JOINT spine_3
			{
				OFFSET	0	206.5	19.3
				CHANNELS 3  Xrotation Yrotation Zrotation
				JOINT spine_4
				{
					OFFSET	0	110.4	14.6
					CHANNELS 3  Xrotation Yrotation Zrotation
					JOINT neck_1
					{
						OFFSET	0	71.8	-50.3
						CHANNELS 3  Xrotation Yrotation Zrotation
						JOINT neck_2
						{
							OFFSET	0	86.2	-25.8
							CHANNELS 3  Xrotation Yrotation Zrotation
							JOINT head_ee
							{
								OFFSET	0	179.8	-8.7
								CHANNELS 3  Xrotation Yrotation Zrotation
								End Site
								{
									OFFSET	1	0	0
								}
							}
						}
					}
					JOINT left_clavicle
					{
						OFFSET	-43.2	22.4	-70.8
						CHANNELS 3  Xrotation Yrotation Zrotation
						JOINT left_shoulder
						{
							OFFSET	-93.9	-5.79999	48.7
							CHANNELS 3  Xrotation Yrotation Zrotation
							JOINT left_elbow
							{
								OFFSET	-291.4	-30.8	15.2
								CHANNELS 3  Xrotation Yrotation Zrotation
								JOINT left_lowarm_twist
								{
									OFFSET	-110.7	-3.89999	13.6
									CHANNELS 3  Xrotation Yrotation Zrotation
									JOINT left_hand
									{
										OFFSET	-110.7	-3.89999	13.6
										CHANNELS 3  Xrotation Yrotation Zrotation
										JOINT left_ee
										{
											OFFSET	-80.8	-5.10001	12.1
											CHANNELS 3  Xrotation Yrotation Zrotation
											End Site
											{
												OFFSET	1	0	0
											}
										}
									}
								}
							}
						}
					}
					JOINT right_clavicle
					{
						OFFSET	43.2	22.4	-70.8
						CHANNELS 3  Xrotation Yrotation Zrotation
						JOINT right_shoulder
						{
							OFFSET	93.9	-5.79999	48.7
							CHANNELS 3  Xrotation Yrotation Zrotation
							JOINT right_elbow
							{
								OFFSET	291.4	-30.8	15.2
								CHANNELS 3  Xrotation Yrotation Zrotation
								JOINT right_lowarm_twist
								{
									OFFSET	110.7	-3.89999	13.6
									CHANNELS 3  Xrotation Yrotation Zrotation
									JOINT right_hand
									{
										OFFSET	110.7	-3.89999	13.6
										CHANNELS 3  Xrotation Yrotation Zrotation
										JOINT right_ee
										{
											OFFSET	80.8	-5.10001	12.1
											CHANNELS 3  Xrotation Yrotation Zrotation
											End Site
											{
												OFFSET	1	0	0
											}
										}
									}
								}
							}
						}
					}
				}
			}
		}
	}
	JOINT left_hip
	{
		OFFSET	-82.8	-127.5	0.300001
		CHANNELS 3  Xrotation Yrotation Zrotation
		JOINT left_knee
		{
			OFFSET	-28.2	-396.7	2.2
			CHANNELS 3  Xrotation Yrotation Zrotation
			JOINT left_ankle
			{
				OFFSET	-11.7	-411.3	35.4
				CHANNELS 3  Xrotation Yrotation Zrotation
				JOINT left_toes
				{
					OFFSET	0	-60	-88.6
					CHANNELS 3  Xrotation Yrotation Zrotation
					JOINT left_foot_ee
					{
						OFFSET	-22.5	-16.5	-42.2
						CHANNELS 3  Xrotation Yrotation Zrotation
						End Site
						{
							OFFSET	1	0	0
						}
					}
				}
			}
		}
	}
	JOINT right_hip
	{
		OFFSET	82.8	-127.5	0.300001
		CHANNELS 3  Xrotation Yrotation Zrotation
		JOINT right_knee
		{
			OFFSET	28.2	-396.7	2.2
			CHANNELS 3  Xrotation Yrotation Zrotation
			JOINT right_ankle
			{
				OFFSET	11.7	-411.3	35.4
				CHANNELS 3  Xrotation Yrotation Zrotation
				JOINT right_toes
				{
					OFFSET	0	-60	-88.6
					CHANNELS 3  Xrotation Yrotation Zrotation
					JOINT right_foot_ee
					{
						OFFSET	22.5	-16.5	-42.2
						CHANNELS 3  Xrotation Yrotation Zrotation
						End Site
						{
							OFFSET	1	0	0
						}
					}
				}
			}
		}
	}
}
MOTION
Frames: 13
Frame Time: 0.02
1041.4 574.639 -1682.42 -12.8949191314 1.36094478859 -1.16557085222 7.59633 0.136522 0.420882 7.59643 0.109464 0.428716 7.59709 0.0752218 0.436029 7.59685 0.14314 0.418678 -17.2376 1.16265 -0.897421 -17.2437 2.73265 -0.411086 -0.0 0.0 -0.0 -2.94713 23.0429 -1.4052 -19.8261 -35.5397 78.0874 0.256166 -7.23218 0.0161888 -29.8233 -1.93949 3.23821 5.91172 31.9754 50.6747 -0.0 0.0 -0.0 9.82282 26.0659 -18.4608 -12.038 23.0787 -67.3773 1.03058 27.0445 -0.24785 -81.3566 7.99368 -5.25942 -8.20069 -24.0652 41.5007 0.0 0.0 0.0 38.0898 -18.642 -3.04254 -2.19489 0.0841297 0.326315 13.1632 22.3569 -1.91199 -19.832 0.0 0.0 -0.0 0.0 -0.0 21.2036 -7.12376 8.90501 -36.6908 0.269771 -5.52944 36.9122 32.1079 5.75707 -5.681 0.0 0.0 0.0 0.0 0.0 
1041.4 574.639 -1682.42 -12.8988130988 1.94945677282 -1.03076189781 7.59633 0.136522 0.420882 7.59643 0.109464 0.428716 7.59709 0.0752218 0.436029 7.59685 0.14314 0.418678 -17.2376 1.16265 -0.897421 -17.2437 2.73265 -0.411086 -0.0 0.0 -0.0 -2.94713 23.0429 -1.4052 -19.8261 -35.5397 78.0874 0.256166 -7.23218 0.0161888 -29.8233 -1.93949 3.23821 5.91172 31.9754 50.6747 -0.0 0.0 -0.0 9.82282 26.0659 -18.4608 -12.038 23.0787 -67.3773 1.03058 27.0445 -0.24785 -81.3566 7.99368 -5.25942 -8.20069 -24.0652 41.5007 0.0 0.0 0.0 38.0898 -18.642 -3.04254 -2.19489 0.0841297 0.326315 13.1632 22.3569 -1.91199 -19.832 0.0 0.0 -0.0 0.0 -0.0 21.2036 -7.12376 8.90501 -36.6908 0.269771 -5.52944 36.9122 32.1079 5.75707 -5.681 0.0 0.0 0.0 0.0 0.0 
1041.4 574.639 -1682.42 -12.9058698484 2.70711081125 -0.857061372444 7.59633 0.136522 0.420882 7.59643 0.109464 0.428716 7.59709 0.0752218 0.436029 7.59685 0.14314 0.418678 -17.2376 1.16265 -0.897421 -17.2437 2.73265 -0.411086 -0.0 0.0 -0.0 -2.94713 23.0429 -1.4052 -19.8261 -35.5397 78.0874 0.256166 -7.23218 0.0161888 -29.8233 -1.93949 3.23821 5.91172 31.9754 50.6747 -0.0 0.0 -0.0 9.82282 26.0659 -18.4608 -12.038 23.0787 -67.3773 1.03058 27.0445 -0.24785 -81.3566 7.99368 -5.25942 -8.20069 -24.0652 41.5007 0.0 0.0 0.0 38.0898 -18.642 -3.04254 -2.19489 0.0841297 0.326315 13.1632 22.3569 -1.91199 -19.832 0.0 0.0 -0.0 0.0 -0.0 21.2036 -7.12376 8.90501 -36.6908 0.269771 -5.52944 36.9122 32.1079 5.75707 -5.681 0.0 0.0 0.0 0.0 0.0 
1041.4 574.639 -1682.42 -12.9099495769 3.06049805548 -0.77597099354 7.59633 0.136522 0.420882 7.59643 0.109464 0.428716 7.59709 0.0752218 0.436029 7.59685 0.14314 0.418678 -17.2376 1.16265 -0.897421 -17.2437 2.73265 -0.411086 -0.0 0.0 -0.0 -2.94713 23.0429 -1.4052 -19.8261 -35.5397 78.0874 0.256166 -7.23218 0.0161888 -29.8233 -1.93949 3.23821 5.91172 31.9754 50.6747 -0.0 0.0 -0.0 9.82282 26.0659 -18.4608 -12.038 23.0787 -67.3773 1.03058 27.0445 -0.24785 -81.3566 7.99368 -5.25942 -8.20069 -24.0652 41.5007 0.0 0.0 0.0 38.0898 -18.642 -3.04254 -2.19489 0.0841297 0.326315 13.1632 22.3569 -1.91199 -19.832 0.0 0.0 -0.0 0.0 -0.0 21.2036 -7.12376 8.90501 -36.6908 0.269771 -5.52944 36.9122 32.1079 5.75707 -5.681 0.0 0.0 0.0 0.0 0.0 
1036.02245349 568.365 -1700.14041923 -13.3479626442 4.52250625613 0.206003142114 7.82504 0.112759 0.273523 7.82508 0.095126 0.280144 7.82548 0.0738183 0.286497 7.82538 0.118139 0.271243 -15.182 0.0360233 -0.0314447 -15.182 0.0875081 -0.0176638 -0.0 0.0 -0.0 -3.95467 22.4268 -2.94675 -18.0792 -35.8087 77.832 0.304753 -8.58505 0.0228745 -29.8356 -1.94062 3.23931 5.87822 31.5247 50.4185 -0.0 0.0 -0.0 10.0835 26.2885 -19.0196 -12.268 22.4759 -68.3852 0.78896 21.3468 -0.148699 -81.1225 7.96407 -5.26322 -8.34991 -24.2193 42.5459 0.0 0.0 0.0 38.7955 -18.8673 -2.64195 -3.20898 0.118759 0.478093 18.9728 22.8168 -2.70185 -17.6654 0.0 0.0 -0.0 0.0 -0.0 19.1934 -6.51942 7.33304 -35.8537 0.22427 -5.40913 37.1631 31.1723 5.71414 -6.38756 0.0 0.0 0.0 0.0 0.0 
1035.95179472 568.365 -1700.11882265 -13.3522408318 4.74493022832 0.258960402032 7.82504 0.112759 0.273523 7.82508 0.095126 0.280144 7.82548 0.0738183 0.286497 7.82538 0.118139 0.271243 -15.182 0.0360233 -0.0314447 -15.182 0.0875081 -0.0176638 -0.0 0.0 -0.0 -3.95467 22.4268 -2.94675 -18.0792 -35.8087 77.832 0.304753 -8.58505 0.0228745 -29.8356 -1.94062 3.23931 5.87822 31.5247 50.4185 -0.0 0.0 -0.0 10.0835 26.2885 -19.0196 -12.268 22.4759 -68.3852 0.78896 21.3468 -0.148699 -81.1225 7.96407 -5.26322 -8.34991 -24.2193 42.5459 0.0 0.0 0.0 38.7955 -18.8673 -2.64195 -3.20898 0.118759 0.478093 18.9728 22.8168 -2.70185 -17.6654 0.0 0.0 -0.0 0.0 -0.0 19.1934 -6.51942 7.33304 -35.8537 0.22427 -5.40913 37.1631 31.1723 5.71414 -6.38756 0.0 0.0 0.0 0.0 0.0 
1027.68248508 583.258 -1717.29695092 -14.1052001336 7.76233489624 1.09906690489 8.02069 -0.0623 0.343155 8.02075 -0.0840095 0.338495 8.02016 -0.10807 0.331599 8.02001 -0.0543444 0.344505 -13.7904 -0.484952 1.4085 -13.7871 -1.79003 1.18873 -0.0 0.0 -0.0 -4.14292 22.1778 -3.27088 -17.1377 -36.682 77.4409 0.362875 -10.1907 0.0323561 -29.7826 -1.93575 3.23457 5.64397 31.6808 48.2803 -0.0 0.0 -0.0 9.66114 25.8672 -18.121 -12.669 21.363 -70.1408 0.630954 17.3571 -0.0963086 -80.5148 7.88711 -5.27251 -8.62413 -25.5182 43.1812 0.0 0.0 0.0 39.2213 -19.0018 -2.45605 -6.00758 0.20032 0.899804 26.3553 24.0935 -3.65596 -14.835 0.0 0.0 -0.0 0.0 -0.0 18.1362 -4.16407 6.21404 -33.5631 0.10882 -5.07675 36.17 27.6465 5.37486 -7.70073 0.0 0.0 0.0 0.0 0.0 
1027.11182001 583.258 -1717.0670754 -14.1383450848 8.67447761557 1.33092823748 8.02069 -0.0623 0.343155 8.02075 -0.0840095 0.338495 8.02016 -0.10807 0.331599 8.02001 -0.0543444 0.344505 -13.7904 -0.484952 1.4085 -13.7871 -1.79003 1.18873 -0.0 0.0 -0.0 -4.14292 22.1778 -3.27088 -17.1377 -36.682 77.4409 0.362875 -10.1907 0.0323561 -29.7826 -1.93575 3.23457 5.64397 31.6808 48.2803 -0.0 0.0 -0.0 9.66114 25.8672 -18.121 -12.669 21.363 -70.1408 0.630954 17.3571 -0.0963086 -80.5148 7.88711 -5.27251 -8.62413 -25.5182 43.1812 0.0 0.0 0.0 39.2213 -19.0018 -2.45605 -6.00758 0.20032 0.899804 26.3553 24.0935 -3.65596 -14.835 0.0 0.0 -0.0 0.0 -0.0 18.1362 -4.16407 6.21404 -33.5631 0.10882 -5.07675 36.17 27.6465 5.37486 -7.70073 0.0 0.0 0.0 0.0 0.0 
1012.06101697 574.873 -1728.18435268 -14.6665715501 8.33150976144 2.15229105832 8.18333 -0.191481 0.3252 8.18337 -0.211786 0.312357 8.18217 -0.232805 0.297022 8.1821 -0.182975 0.330061 -12.7915 -0.904786 2.06765 -12.7849 -3.02463 1.71196 -0.0 0.0 -0.0 -4.2052 21.2219 -3.5827 -15.8991 -37.0706 76.6329 0.429019 -11.9984 0.0450858 -29.5987 -1.91888 3.21809 5.4698 31.7939 46.7668 -0.0 0.0 -0.0 9.37062 25.5261 -17.5091 -13.6346 21.2489 -71.8216 0.533681 14.8087 -0.0693546 -80.373 7.86914 -5.27456 -8.89303 -26.5842 44.0131 0.0 0.0 0.0 39.8864 -18.7757 -1.24792 -7.96175 0.245007 1.19634 31.8195 25.338 -4.32335 -12.6576 0.0 0.0 -0.0 0.0 -0.0 17.0735 -2.42014 5.04608 -31.9879 0.0371935 -4.84566 35.594 25.1959 5.17533 -8.60617 0.0 0.0 0.0 0.0 0.0 
997.674335243 586.432 -1735.67189261 -15.1600936622 9.54720435119 2.76499626868 8.22458 -0.324282 0.124686 8.22453 -0.331559 0.103798 8.22403 -0.337864 0.0809537 8.22416 -0.320838 0.133298 -12.0833 -1.30701 2.27179 -12.0766 -3.93866 1.81416 -0.0 0.0 -0.0 -3.96463 20.516 -3.39274 -14.7708 -37.5264 76.2539 0.48619 -13.5417 0.057724 -29.5733 -1.91655 3.21581 5.32729 31.8205 45.5748 -0.0 0.0 -0.0 8.77704 25.3206 -16.2118 -15.4393 21.0488 -72.7418 0.460002 12.8371 -0.0517486 -80.2659 7.85557 -5.27608 -9.08985 -27.3674 44.5842 0.0 0.0 0.0 40.1565 -18.6346 -0.213346 -9.36107 0.270778 1.40952 35.7778 26.2456 -4.78161 -11.0654 0.0 0.0 -0.0 0.0 -0.0 17.1874 -0.138331 5.35028 -30.8971 -0.00866249 -4.68455 35.2036 23.2662 5.03708 -9.24382 0.0 0.0 0.0 0.0 0.0 
996.820751899 586.432 -1734.95939916 -15.2027584017 10.4395083836 3.0108465704 8.22458 -0.324282 0.124686 8.22453 -0.331559 0.103798 8.22403 -0.337864 0.0809537 8.22416 -0.320838 0.133298 -12.0833 -1.30701 2.27179 -12.0766 -3.93866 1.81416 -0.0 0.0 -0.0 -3.96463 20.516 -3.39274 -14.7708 -37.5264 76.2539 0.48619 -13.5417 0.057724 -29.5733 -1.91655 3.21581 5.32729 31.8205 45.5748 -0.0 0.0 -0.0 8.77704 25.3206 -16.2118 -15.4393 21.0488 -72.7418 0.460002 12.8371 -0.0517486 -80.2659 7.85557 -5.27608 -9.08985 -27.3674 44.5842 0.0 0.0 0.0 40.1565 -18.6346 -0.213346 -9.36107 0.270778 1.40952 35.7778 26.2456 -4.78161 -11.0654 0.0 0.0 -0.0 0.0 -0.0 17.1874 -0.138331 5.35028 -30.8971 -0.00866249 -4.68455 35.2036 23.2662 5.03708 -9.24382 0.0 0.0 0.0 0.0 0.0 
995.598167344 586.432 -1733.8970818 -15.2721389407 11.7389846563 3.37154457536 8.22458 -0.324282 0.124686 8.22453 -0.331559 0.103798 8.22403 -0.337864 0.0809537 8.22416 -0.320838 0.133298 -12.0833 -1.30701 2.27179 -12.0766 -3.93866 1.81416 -0.0 0.0 -0.0 -3.96463 20.516 -3.39274 -14.7708 -37.5264 76.2539 0.48619 -13.5417 0.057724 -29.5733 -1.91655 3.21581 5.32729 31.8205 45.5748 -0.0 0.0 -0.0 8.77704 25.3206 -16.2118 -15.4393 21.0488 -72.7418 0.460002 12.8371 -0.0517486 -80.2659 7.85557 -5.27608 -9.08985 -27.3674 44.5842 0.0 0.0 0.0 40.1565 -18.6346 -0.213346 -9.36107 0.270778 1.40952 35.7778 26.2456 -4.78161 -11.0654 0.0 0.0 -0.0 0.0 -0.0 17.1874 -0.138331 5.35028 -30.8971 -0.00866249 -4.68455 35.2036 23.2662 5.03708 -9.24382 0.0 0.0 0.0 0.0 0.0 
958.497603899 597.77 -1752.71390327 -16.6562978599 12.6116173876 4.45878405963 8.26116 -0.443959 -0.241044 8.26109 -0.427721 -0.268806 8.26318 -0.408611 -0.29705 8.26334 -0.450396 -0.228789 -11.2746 -2.16552 2.75159 -11.2675 -5.89951 2.07613 -0.0 0.0 -0.0 -2.75347 19.7265 -1.76723 -11.9108 -38.4427 77.4776 0.615019 -16.9441 0.0916096 -29.6415 -1.9228 3.22193 5.12855 31.7074 43.9729 -0.0 0.0 -0.0 7.74273 26.2341 -13.8342 -18.0241 20.844 -75.2869 0.359589 10.1004 -0.0317774 -80.3018 7.86012 -5.27558 -9.29616 -28.2862 45.0047 0.0 0.0 0.0 40.3127 -18.5948 1.46423 -11.0294 0.294687 1.66439 39.3566 27.0382 -5.17514 -9.17414 0.0 0.0 -0.0 0.0 -0.0 17.4488 5.1321 5.30874 -29.7104 -0.0550516 -4.50835 34.694 20.9476 4.87962 -9.9756 0.0 0.0 0.0 0.0 0.0 
